# xmcd
#
# Track frame offsets: 
#        182
#        10370
#        21182
#        31155
#        42482
#        52312
#        61725
#        73330
#        84655
#        95745
#        106335
#        117060
#
# Disc length: 1703 seconds
#
# Revision: 3
# Processed by: cddbd v1.5.2PL0 Copyright (c) Steve Scherf et al.
# Submitted via: ExactAudioCopy v1.0b1
#
DISCID=a406a50c
DTITLE=Patsy Cline - The Legendary Patsy Cline
DYEAR=1988
DGENRE=Country
TTITLE0=Three Cigarettes in an Ashtray
TTITLE1=I Can See An Angel Walkin
TTITLE2=Turn The Cards Slowly
TTITLE3=The Heart You Break May Be Your Own
TTITLE4=I'm Blue Again
TTITLE5=Love Me, Love Me, Honey Do
TTITLE6=Walking After Midnight
TTITLE7=Just Out Of Reach
TTITLE8=A Stranger In My Arms
TTITLE9=Gotta Lot Of Rhythm
TTITLE10=Stop Look And Listen
TTITLE11=I Cried All The Way To The Altar
EXTD=
EXTT0=
EXTT1=
EXTT2=
EXTT3=
EXTT4=
EXTT5=
EXTT6=
EXTT7=
EXTT8=
EXTT9=
EXTT10=
EXTT11=
PLAYORDER=
